<?xml version="1.0" encoding="UTF-8" standalone="no"?>
<!-- Created with Inkscape (http://www.inkscape.org/) -->

<svg
   width="90.127533mm"
   height="90.127525mm"
   viewBox="0 0 90.127533 90.127525"
   version="1.1"
   id="svg1"
   sodipodi:docname="consumo.svg"
   inkscape:version="1.2.2 (b0a8486541, 2022-12-01)"
   xmlns:inkscape="http://www.inkscape.org/namespaces/inkscape"
   xmlns:sodipodi="http://sodipodi.sourceforge.net/DTD/sodipodi-0.dtd"
   xmlns="http://www.w3.org/2000/svg"
   xmlns:svg="http://www.w3.org/2000/svg">
  <sodipodi:namedview
     id="namedview1"
     pagecolor="#ffffff"
     bordercolor="#111111"
     borderopacity="1"
     inkscape:showpageshadow="0"
     inkscape:pageopacity="0"
     inkscape:pagecheckerboard="1"
     inkscape:deskcolor="#d1d1d1"
     inkscape:document-units="mm"
     showgrid="false"
     inkscape:zoom="1.2212325"
     inkscape:cx="241.96866"
     inkscape:cy="219.45043"
     inkscape:window-width="1920"
     inkscape:window-height="1043"
     inkscape:window-x="0"
     inkscape:window-y="0"
     inkscape:window-maximized="1"
     inkscape:current-layer="layer1">
    <inkscape:page
       x="0"
       y="0"
       width="90.127533"
       height="90.127525"
       id="page2"
       margin="0"
       bleed="0" />
  </sodipodi:namedview>
  <defs
     id="defs1">
    <inkscape:path-effect
       effect="fillet_chamfer"
       id="path-effect2"
       is_visible="true"
       lpeversion="1"
       nodesatellites_param="F,0,0,1,0,0,0,1 @ F,0,0,1,0,0,0,1 @ F,0,0,1,0,4.9662335,0,1 @ F,0,0,1,0,6.3105792,0,1"
       radius="0"
       unit="px"
       method="auto"
       mode="F"
       chamfer_steps="1"
       flexible="false"
       use_knot_distance="true"
       apply_no_radius="true"
       apply_with_radius="true"
       only_selected="false"
       hide_knots="false" />
  </defs>
  <g
     inkscape:label="Capa 1"
     inkscape:groupmode="layer"
     id="layer1"
     transform="translate(-63.169602,-103.80458)">
    <g
       id="g2627"
       inkscape:export-filename="consumo.svg"
       inkscape:export-xdpi="96"
       inkscape:export-ydpi="96">
      <g
         id="g1884">
        <g
           id="g1786"
           transform="translate(-6.3500003)">
          <circle
             style="fill:#1a1a1a;stroke:#e4db00;stroke-width:1.25133;stroke-dasharray:none;stroke-opacity:1;paint-order:fill markers stroke"
             id="path1"
             cx="114.67652"
             cy="148.83276"
             r="43.035255" />
          <circle
             style="fill:#333333;stroke:#e5e300;stroke-width:1.26693;stroke-dasharray:none;stroke-opacity:1;paint-order:fill markers stroke"
             id="path1-9"
             cx="114.49148"
             cy="148.70119"
             r="38.886555" />
        </g>
        <g
           id="g1868"
           transform="matrix(1.1816868,0,0,1.1007368,-125.76065,-6.0430505)">
          <path
             style="fill:#333333;fill-opacity:1;stroke:#f3ee00;stroke-width:0.839967;stroke-dasharray:none;stroke-opacity:1;paint-order:fill markers stroke"
             id="rect2"
             width="9.3983593"
             height="14.285526"
             x="192.84457"
             y="150.08842"
             ry="0"
             inkscape:path-effect="#path-effect2"
             sodipodi:type="rect"
             d="m 192.84457,150.08842 h 9.39836 v 9.3193 a 4.9662335,4.9662335 135 0 1 -4.96623,4.96623 5.4528501,5.4528501 54.918379 0 1 -4.43213,-6.31058 z" />
          <ellipse
             style="fill:#333333;stroke:#e2e200;stroke-width:1.37774;stroke-dasharray:none;stroke-opacity:1;paint-order:fill markers stroke"
             id="path2"
             cx="198.24994"
             cy="135.26501"
             rx="16.802906"
             ry="17.727837" />
          <g
             id="g1834"
             transform="matrix(0.56172976,-0.04582153,0.04853512,0.53032351,63.859512,78.686207)">
            <path
               style="fill:#ffff00;fill-opacity:1;stroke-width:0.824622;stroke-dasharray:none"
               d="m 231.11389,109.1461 -11.49686,18.49189 12.37885,5.02498 -10.97221,18.68528 5.4092,-16.38674 -13.06406,-5.19026 0.0199,-0.17736 z"
               id="path1416" />
            <path
               style="fill:#ef621a;fill-opacity:1;stroke:none;stroke-width:0.695237;stroke-dasharray:none;stroke-opacity:1"
               d="m 233.91239,106.67104 -15.45577,21.30858 12.43377,5.13419 -8.52042,15.38466 4.84119,-14.00488 -12.90192,-5.03908 0.0156,-0.14993 z"
               id="path1416-3"
               sodipodi:nodetypes="cccccccc" />
            <path
               style="fill:#ffff00;fill-opacity:1;stroke-width:0.824622;stroke-dasharray:none"
               d="m 239.81521,106.09763 -11.49685,18.4919 12.37884,5.02498 -10.97221,18.68528 5.4092,-16.38674 -13.06406,-5.19027 0.0199,-0.17735 z"
               id="path1416-5" />
            <path
               style="fill:#e26b15;fill-opacity:1;stroke-width:0.695237;stroke-dasharray:none"
               d="m 237.83293,108.71957 -10.67499,16.21158 12.43377,5.1342 -12.06987,20.56962 8.39064,-19.18984 -12.90192,-5.03909 0.0156,-0.14993 z"
               id="path1416-3-3"
               sodipodi:nodetypes="cccccccc" />
          </g>
          <path
             style="fill:#666666;fill-opacity:1;stroke-width:0.949729;stroke-dasharray:none"
             d="m 202.13935,154.77579 -5.69766,1.85316"
             id="path1646" />
          <path
             style="fill:#ffff00;fill-opacity:1;stroke-width:0.949729;stroke-dasharray:none"
             id="path1764"
             d="m 199.80767,158.68737 c -0.38202,0.14958 -0.77629,0.26912 -1.15554,0.4256 -0.23843,0.0794 -0.48249,0.14848 -0.72847,0.20189 -0.19661,0.0307 -0.36983,0.14354 -0.54438,0.23303 -0.1488,0.0586 -0.28448,0.14749 -0.43524,0.20212 -0.16229,0.009 -0.30936,0.0698 -0.46688,0.1006 0,0 2.38474,1.64762 2.38474,1.64762 v 0 c 0.1662,-0.0472 0.33978,-0.0673 0.49694,-0.14295 0.14714,-0.0752 0.29699,-0.14486 0.44413,-0.22013 0.15737,-0.0851 0.32651,-0.14354 0.502,-0.17811 0.25005,-0.071 0.50339,-0.13422 0.74147,-0.24079 0.38343,-0.1502 0.76946,-0.29318 1.16025,-0.4231 0,0 -2.39902,-1.60578 -2.39902,-1.60578 z" />
          <path
             style="fill:#ffff00;fill-opacity:1;stroke-width:0.902548;stroke-dasharray:none"
             id="path1766"
             d="m 200.3629,155.33169 c -0.33785,0.15433 -0.69225,0.25783 -1.05217,0.32433 -0.20707,0.0367 -0.4021,0.11481 -0.61207,0.14169 -0.15104,0.0261 -0.29309,0.0787 -0.44757,0.0916 -0.16008,0.035 -0.31571,0.0879 -0.4815,0.10835 -0.0855,0.0623 -0.19936,0.0492 -0.28984,0.0892 -0.0476,0.0211 -0.0888,0.0571 -0.1355,0.0806 -0.11624,0.0768 -0.24415,0.12553 -0.36922,0.17999 -0.1148,0.0259 -0.23035,0.0664 -0.33381,0.12878 -0.0629,0.0233 -0.1225,0.0431 -0.18235,0.075 0,0 2.17775,1.61297 2.17775,1.61297 v 0 c 0.0631,-0.0224 0.12474,-0.0484 0.18513,-0.0786 0.11309,-0.0354 0.22416,-0.0808 0.33343,-0.12803 0.12283,-0.0617 0.2498,-0.11356 0.3695,-0.18358 0.12046,-0.0559 0.25666,-0.0801 0.3842,-0.11062 0.16048,-0.0351 0.31617,-0.0921 0.48001,-0.10284 0.1503,-0.0319 0.29627,-0.0836 0.44913,-0.10011 0.20383,-0.0475 0.4014,-0.12208 0.60776,-0.15715 0.3575,-0.0924 0.70415,-0.22413 1.05885,-0.32716 0,0 -2.14173,-1.64439 -2.14173,-1.64439 z" />
        </g>
      </g>
    </g>
  </g>
</svg>
